<svg xmlns="http://www.w3.org/2000/svg" version="1.1" xmlns:xlink="http://www.w3.org/1999/xlink" xmlns:svgjs="http://svgjs.dev/svgjs" width="1000" height="1125" viewBox="0 0 1000 1125"><g transform="matrix(1,0,0,1,1.7053025658242404e-13,0)"><svg viewBox="0 0 320 360" data-background-color="#ffffff" preserveAspectRatio="xMidYMid meet" height="1125" width="1000" xmlns="http://www.w3.org/2000/svg" xmlns:xlink="http://www.w3.org/1999/xlink"><g id="tight-bounds" transform="matrix(1,0,0,1,0,0)"><svg viewBox="0 0 320 360" height="360" width="320"><g><svg></svg></g><g><svg viewBox="0 0 320 360" height="360" width="320"><g><path d="M20.961 227.22l3.726 4.658-1.863-6.056c-0.466-2.795-3.726 0.466-1.863 1.398M25.153 224.425c1.397 2.329 2.795 4.658 2.795 6.987 0 3.261 2.795 4.658 5.123 5.589-3.261-3.726-5.124-13.974-7.918-12.576M204.017 26.929c7.918 0 15.371-0.932 23.756 0.931 20.495 5.124 37.729 15.371 49.374 29.811l32.606 52.169c1.397 13.042 4.192 27.482 3.726 43.319 3.261 0 2.795-4.658 6.521-5.59-3.726 9.316-5.59 20.961-6.521 34.469-2.329-7.453 0-18.632 0.466-24.687-3.261 5.124-5.124 1.397-5.124-0.932 0.466-3.726-1.397-3.261-2.795-4.658-5.124-4.658-8.384-9.782-12.11-17.7 2.329-6.055 2.795-14.905-4.658-19.563-2.329-1.397-5.124-3.726-6.521-7.453-1.863-5.124-5.124-11.179-4.193-19.097 0.466-2.329-6.987 5.124-11.179 1.863-18.166-12.576-36.332-27.016-58.224-39.127-11.645 0-20.029-4.192-24.221-9.316-3.726-4.658-0.932-10.713 4.658-11.179 3.261 0 6.987-0.932 9.782 0.932 0.466-1.863 2.329-4.192 4.657-4.192M157.904 16.215l0.932 0.466c4.658 0.932 6.987 7.453 12.11 5.124 0 3.261 0.466 6.521-0.466 8.85-1.397 3.726-5.59 3.726-8.85 3.726-31.208-1.863-49.374 11.179-68.471 22.358-5.124 3.261-10.713 5.59-14.906 9.782-20.029 18.632-41.921 35.866-47.045 70.335l-4.192 38.195c-0.466 4.192-5.124 8.384-4.192 13.508l3.26 22.824c-3.261-3.261-5.124 0.932-4.192 2.795 0.466 1.397 2.329 6.055 5.124 1.863 3.726 6.987 7.453 20.495 12.576 26.55 15.837 18.632 36.332 35.4 53.101 52.169 4.192-0.932 7.453-0.932 8.384-3.727 1.397 2.795-1.397 5.59-3.726 6.056 7.453 4.658 15.837 8.85 27.016 9.781 14.44 0.932 27.948 3.261 40.524 6.522 6.521-1.863 13.042-2.795 20.029-3.261 2.329 0 3.726-3.726 6.521-4.658l0.466-4.658c2.795 4.192 2.329-1.397 0.466-4.192 3.261 2.795 4.192 5.124 5.589 6.987 0-1.397 3.726-6.521 3.727-0.466l0.931-6.055c1.397-0.932 1.863 5.124 3.261 0.931 1.397-4.192 4.192-0.932 6.987-2.329-0.932 1.863-0.466 5.59 2.794 3.261l3.727-3.261c2.329 5.59 6.055 3.261 7.918 2.329 20.495-13.042 40.99-28.413 60.553-43.784l-0.466 6.055 2.329-7.453c2.329 2.329 4.192 0.466 5.124-0.931 2.795-4.658 6.521-9.316 12.577-13.508-7.453 20.029-16.303 35.866-27.482 48.908l-4.658 5.59c0 3.261-0.932 7.453-4.658 7.918-1.863 0.466-5.59-0.932-8.384 1.863-1.397 1.863 3.261 5.59-0.466 2.795-3.261-2.329-6.521 0-10.248 0.932-2.795 0.932 1.863 3.726 2.795 5.589 0.932 1.863 1.863 3.726 1.398 6.056l-5.124-5.59c-6.055 3.261-9.782 9.316-14.906 13.974-2.329 1.863-1.397 5.124-1.397 7.918-3.261 0-6.987-0.932-8.85 0.932-1.397 1.863-0.932 4.658-0.932 7.453-4.658-0.466-5.124-7.453-9.315-6.056-4.192 0.932-8.85 1.397-12.577 3.727 2.795 5.59-4.658 2.329-3.726 3.26-6.987-4.192-13.042-7.453-20.495-4.658-15.837-5.124-35.4-2.795-49.84-0.931 0-2.329 0.466-4.658-0.466-5.124-0.932 2.329-3.726 1.397-3.26 1.397-8.85-6.055-17.7-9.782-27.016-14.905-8.384 0.932-16.303-3.261-18.632-5.59-6.521-6.055-13.974-2.795-20.029-4.192-13.042-3.261-17.7-16.769-19.098-26.084-0.932-4.658-4.658-6.521-6.055-6.056-6.055-19.563-15.371-37.263-22.824-55.429-1.863-4.658-1.397-9.316-1.397-14.44 2.329 0.932 4.658 0.466 4.192-2.794-2.329-15.371-7.918-27.016-13.974-38.195 3.261-15.837 3.726-34.469 11.179-48.443 6.521-12.576 18.632-19.098 27.016-29.811 2.795-3.726 2.795-8.85 5.59-12.11 9.316-9.316 18.632-19.098 28.879-27.482 4.658-3.726 10.247 0 17.234-1.397 2.329-8.384 11.645-15.837 20.495-13.508 3.726 0.932 11.179-8.85 13.508-9.782 3.726-1.397 1.863 3.726 1.863 6.987 8.85-6.987 20.961-10.713 32.14-14.906" fill="#6d55a7" fill-rule="nonzero" stroke="none" stroke-width="1" stroke-linecap="butt" stroke-linejoin="miter" stroke-miterlimit="10" stroke-dasharray="" stroke-dashoffset="0" font-family="none" font-weight="none" font-size="none" text-anchor="none" style="mix-blend-mode: normal" data-fill-palette-color="tertiary"></path></g><g transform="matrix(1,0,0,1,64,134.49165893318047)"><svg viewBox="0 0 192 91.01668213363902" height="91.01668213363902" width="192"><g><svg viewBox="0 0 192 91.01668213363902" height="91.01668213363902" width="192"><g><svg viewBox="0 0 192 91.01668213363902" height="91.01668213363902" width="192"><g><svg viewBox="0 0 192 91.01668213363902" height="91.01668213363902" width="192"><g id="textblocktransform"><svg viewBox="0 0 192 91.01668213363902" height="91.01668213363902" width="192" id="textblock"><g><svg viewBox="0 0 192 53.728887503895294" height="53.728887503895294" width="192"><g transform="matrix(1,0,0,1,0,0)"><svg width="192" viewBox="3 -33.5 160.44 44.900000000000006" height="53.728887503895294" data-palette-color="#755bb4"><path d="M7.5 11.4L3 11.4 3-12Q3-14.6 3.95-16.9 4.9-19.2 6.55-20.88 8.2-22.55 10.45-23.53 12.7-24.5 15.25-24.5L15.25-24.5Q17.8-24.5 20.03-23.53 22.25-22.55 23.93-20.85 25.6-19.15 26.55-16.88 27.5-14.6 27.5-12L27.5-12Q27.5-9.4 26.58-7.13 25.65-4.85 24-3.15 22.35-1.45 20.1-0.48 17.85 0.5 15.25 0.5L15.25 0.5Q12.05 0.5 9.3-1L9.3-1 9.3-5.5Q11.75-3.7 15.1-3.7L15.1-3.7Q16.9-3.7 18.38-4.33 19.85-4.95 20.88-6.05 21.9-7.15 22.45-8.68 23-10.2 23-12L23-12Q23-13.8 22.45-15.33 21.9-16.85 20.9-17.95 19.9-19.05 18.48-19.68 17.05-20.3 15.25-20.3L15.25-20.3Q13.5-20.3 12.08-19.7 10.65-19.1 9.63-18 8.6-16.9 8.05-15.38 7.5-13.85 7.5-12L7.5-12 7.5 11.4ZM36.4 0L32 0 32-13.65Q32-19.4 34.15-21.6L34.15-21.6Q35.2-22.7 36.7-23.25 38.2-23.8 39.32-23.9 40.45-24 42.4-24L42.4-24 46.8-24 46.8-19.8 41.5-19.8Q40.5-19.8 39.95-19.75 39.4-19.7 38.65-19.4 37.9-19.1 37.35-18.45L37.35-18.45Q36.4-17.25 36.4-13.65L36.4-13.65 36.4 0ZM56.55-24L56.55 0 52.15 0 52.15-19.8 48.05-19.8 50.05-24 56.55-24ZM51.95-29L51.95-29Q51.3-29.85 51.3-30.85 51.3-31.85 51.95-32.68 52.59-33.5 53.95-33.5 55.3-33.5 55.95-32.68 56.59-31.85 56.59-30.85 56.59-29.85 55.95-29.03 55.3-28.2 53.95-28.2 52.59-28.2 51.95-29ZM63.49 0L63.49-24 85.54-24Q89.09-24 91.19-22.65L91.19-22.65Q93.34-21.3 94.02-19.15 94.69-17 94.69-14L94.69-14 94.69 0 90.29 0 90.29-14Q90.29-17.9 87.94-19.15L87.94-19.15Q86.74-19.8 83.09-19.8L83.09-19.8 81.04-19.8 81.04 0 76.64 0 76.64-19.8 67.89-19.8 67.89 0 63.49 0ZM102.64-19.8L98.19-19.8 107.14-28.75 107.14-24 113.89-24 113.89-19.8 107.14-19.8 107.14-9.5Q107.14-7.75 107.72-6.6 108.29-5.45 109.39-4.98 110.49-4.5 111.47-4.35 112.44-4.2 113.89-4.2L113.89-4.2 113.89 0Q108.14 0 105.39-2.2 102.64-4.4 102.64-9.5L102.64-9.5 102.64-19.8ZM131.99-14.1L131.99-14.1 131.99-9.6Q130.09-11.05 127.34-11.05L127.34-11.05Q124.99-11.05 123.69-10.13 122.39-9.2 122.39-7.5L122.39-7.5Q122.39-4.2 127.29-4.2L127.29-4.2 133.89-4.2 133.89-13.75Q133.89-19.8 127.99-19.8L127.99-19.8 119.99-19.8 119.99-24 128.24-24Q133.09-24 135.69-21.6 138.29-19.2 138.29-14.7L138.29-14.7 138.29 0 127.14 0Q122.89 0 120.39-1.9 117.89-3.8 117.89-7.45 117.89-11.1 120.54-13 123.19-14.9 127.19-14.9L127.19-14.9Q129.44-14.9 131.99-14.1ZM157.14-14.1L157.14-14.1 157.14-9.6Q155.24-11.05 152.49-11.05L152.49-11.05Q150.14-11.05 148.84-10.13 147.54-9.2 147.54-7.5L147.54-7.5Q147.54-4.2 152.44-4.2L152.44-4.2 159.04-4.2 159.04-13.75Q159.04-19.8 153.14-19.8L153.14-19.8 145.14-19.8 145.14-24 153.39-24Q158.24-24 160.84-21.6 163.44-19.2 163.44-14.7L163.44-14.7 163.44 0 152.29 0Q148.04 0 145.54-1.9 143.04-3.8 143.04-7.45 143.04-11.1 145.69-13 148.34-14.9 152.34-14.9L152.34-14.9Q154.59-14.9 157.14-14.1Z" opacity="1" transform="matrix(1,0,0,1,0,0)" fill="#755bb4" class="wordmark-text-0" data-fill-palette-color="primary" id="text-0"></path></svg></g></svg></g><g transform="matrix(1,0,0,1,0,61.56922168401371)"><svg viewBox="0 0 192 29.44746044962531" height="29.44746044962531" width="192"><g transform="matrix(1,0,0,1,0,0)"><svg width="192" viewBox="2.65 -35 300.22 46.05" height="29.44746044962531" data-palette-color="#755bb4"><path d="M29.9-2.45L30.5-0.2Q29.15 0.6 27.5 0.6L27.5 0.6Q25.75 0.6 24.65-0.48 23.55-1.55 23.3-3.5L23.3-3.5Q21.1-1.65 18.8-0.5 16.5 0.65 13.75 0.65L13.75 0.65Q10.7 0.65 8.18-0.83 5.65-2.3 4.15-5.03 2.65-7.75 2.65-11.3L2.65-11.3Q2.65-15.1 4.28-18.03 5.9-20.95 8.65-22.58 11.4-24.2 14.6-24.2L14.6-24.2Q17.15-24.2 19.23-23.25 21.3-22.3 23.2-20.65L23.2-20.65 23.2-31.95 17.4-31.95 17.4-34.3 25.9-34.3 25.9-5Q25.9-1.9 27.9-1.9L27.9-1.9Q29.2-1.9 29.9-2.45L29.9-2.45ZM5.45-11.35Q5.45-8.5 6.58-6.33 7.7-4.15 9.63-2.95 11.55-1.75 13.95-1.75L13.95-1.75Q18.7-1.75 23.2-5.8L23.2-5.8 23.2-18.35Q19.3-21.8 14.95-21.8L14.95-21.8Q12.35-21.8 10.18-20.45 8-19.1 6.73-16.73 5.45-14.35 5.45-11.35L5.45-11.35ZM55.65-5.15L56.95-3.35Q54.8-1.45 52.4-0.4 50 0.65 46.95 0.65L46.95 0.65Q43.75 0.65 40.9-0.73 38.05-2.1 36.3-4.75 34.55-7.4 34.55-11.05L34.55-11.05Q34.55-15.15 36.4-18.13 38.25-21.1 41.15-22.63 44.05-24.15 47.2-24.15L47.2-24.15Q49.9-24.15 52.07-23.2 54.25-22.25 55.5-20.6 56.75-18.95 56.75-16.85L56.75-16.85Q56.75-14.7 55.42-13.2 54.1-11.7 51.92-10.93 49.75-10.15 47.3-10.15L47.3-10.15Q44.75-10.15 42.35-10.73 39.95-11.3 37.25-12.3L37.25-12.3Q37.2-11.9 37.2-11.1L37.2-11.1Q37.2-8.35 38.52-6.23 39.85-4.1 42.07-2.93 44.3-1.75 46.8-1.75L46.8-1.75Q49.6-1.75 51.67-2.63 53.75-3.5 55.65-5.15L55.65-5.15ZM47.3-21.85Q44.1-21.85 41.3-19.78 38.5-17.7 37.55-14.1L37.55-14.1Q42.5-12.35 46.95-12.35L46.95-12.35Q49.8-12.35 51.9-13.53 54-14.7 54-16.85L54-16.85Q54-19.1 52.15-20.48 50.3-21.85 47.3-21.85L47.3-21.85ZM73.15-13.05Q77.84-11.85 80.45-10.18 83.05-8.5 83.05-5.3L83.05-5.3Q83.05-2.45 80.67-0.9 78.3 0.65 74.95 0.65L74.95 0.65Q72.15 0.65 69.27-0.6 66.4-1.85 64.55-3.75L64.55-3.75 64.55 0 62.25 0 62.25-7.45 63.45-7.65Q65.4-4.95 68.5-3.2 71.59-1.45 74.75-1.45L74.75-1.45Q77.05-1.45 78.65-2.43 80.25-3.4 80.25-5.1L80.25-5.1Q80.25-7.25 78.25-8.4 76.25-9.55 72.25-10.6L72.25-10.6Q67.75-11.7 65.12-13.4 62.5-15.1 62.5-18L62.5-18Q62.5-20.65 64.75-22.43 67-24.2 70.59-24.2L70.59-24.2Q73.34-24.2 75.84-23.05 78.34-21.9 79.95-20L79.95-20 79.95-23.55 82.25-23.55 82.25-16.1 80.95-15.95Q79.5-18.85 76.75-20.48 74-22.1 71-22.1L71-22.1Q68.55-22.1 66.92-21.05 65.3-20 65.3-18.25L65.3-18.25Q65.3-16.35 67.32-15.23 69.34-14.1 73.15-13.05L73.15-13.05ZM94.44-30.25Q93.19-30.25 92.34-30.93 91.49-31.6 91.49-32.6L91.49-32.6Q91.49-33.6 92.34-34.3 93.19-35 94.44-35L94.44-35Q95.79-35 96.67-34.33 97.54-33.65 97.54-32.6L97.54-32.6Q97.54-31.6 96.69-30.93 95.84-30.25 94.44-30.25L94.44-30.25ZM96.49-2.35L102.34-2.35 102.34 0 87.94 0 87.94-2.35 93.74-2.35 93.74-21.2 87.94-21.2 87.94-23.55 96.49-23.55 96.49-2.35ZM124.29-3.9Q127.14-3.9 128.91-2.45 130.69-1 130.69 1.6L130.69 1.6Q130.69 4.45 128.62 6.6 126.54 8.75 123.14 9.9 119.74 11.05 115.84 11.05L115.84 11.05Q112.54 11.05 109.92 10.18 107.29 9.3 105.79 7.65 104.29 6 104.29 3.85L104.29 3.85Q104.29 1 107.04-1.1L107.04-1.1Q105.99-1.85 105.44-2.88 104.89-3.9 104.89-5L104.89-5Q104.89-6.85 105.99-8.35 107.09-9.85 108.89-10.95L108.89-10.95Q107.34-13 107.34-15.6L107.34-15.6Q107.34-18.3 108.81-20.25 110.29-22.2 112.61-23.2 114.94-24.2 117.39-24.2L117.39-24.2Q120.44-24.2 122.99-22.85L122.99-22.85Q123.94-25.45 125.84-26.9 127.74-28.35 130.49-28.45L130.49-28.45 130.49-26Q128.24-25.9 126.84-24.98 125.44-24.05 124.39-21.95L124.39-21.95Q125.84-20.85 126.67-19.28 127.49-17.7 127.49-15.75L127.49-15.75Q127.49-13.1 126.09-11.15 124.69-9.2 122.39-8.18 120.09-7.15 117.39-7.15L117.39-7.15Q115.29-7.15 113.37-7.8 111.44-8.45 109.99-9.7L109.99-9.7Q107.44-7.9 107.44-5.65L107.44-5.65Q107.44-4.1 108.64-3.1 109.84-2.1 112.24-2.1L112.24-2.1Q113.34-2.1 114.69-2.33 116.04-2.55 116.84-2.73 117.64-2.9 117.99-2.95L117.99-2.95Q121.89-3.9 124.29-3.9L124.29-3.9ZM117.39-22Q115.54-22 113.84-21.25 112.14-20.5 111.09-19.05 110.04-17.6 110.04-15.6L110.04-15.6Q110.04-12.65 112.24-11 114.44-9.35 117.39-9.35L117.39-9.35Q120.64-9.35 122.72-11.05 124.79-12.75 124.79-15.75L124.79-15.75Q124.79-18.7 122.56-20.35 120.34-22 117.39-22L117.39-22ZM116.24 8.7Q119.34 8.7 122.04 7.85 124.74 7 126.42 5.4 128.09 3.8 128.09 1.7L128.09 1.7Q128.09 0.05 126.92-0.78 125.74-1.6 123.69-1.6L123.69-1.6Q122.44-1.6 121.27-1.38 120.09-1.15 118.19-0.7L118.19-0.7Q115.94-0.2 114.69 0.03 113.44 0.25 111.94 0.25L111.94 0.25Q110.04 0.25 108.54-0.3L108.54-0.3Q106.79 1.3 106.79 3.4L106.79 3.4Q106.79 5.8 109.42 7.25 112.04 8.7 116.24 8.7L116.24 8.7ZM161.69-2.35L166.84-2.35 166.84 0 154.19 0 154.19-2.35 158.94-2.35 158.94-14.65Q158.94-21.65 152.99-21.65L152.99-21.65Q150.44-21.65 147.69-20 144.94-18.35 142.29-15.5L142.29-15.5 142.29-2.35 147.04-2.35 147.04 0 133.74 0 133.74-2.35 139.54-2.35 139.54-21.2 133.74-21.2 133.74-23.55 142.29-23.55 142.29-17.85Q145.14-20.9 147.94-22.55 150.74-24.2 153.79-24.2L153.79-24.2Q157.49-24.2 159.59-21.85 161.69-19.5 161.69-14.9L161.69-14.9 161.69-2.35ZM203.38-3.9Q206.23-3.9 208.01-2.45 209.78-1 209.78 1.6L209.78 1.6Q209.78 4.45 207.71 6.6 205.63 8.75 202.23 9.9 198.83 11.05 194.93 11.05L194.93 11.05Q191.63 11.05 189.01 10.18 186.38 9.3 184.88 7.65 183.38 6 183.38 3.85L183.38 3.85Q183.38 1 186.13-1.1L186.13-1.1Q185.08-1.85 184.53-2.88 183.98-3.9 183.98-5L183.98-5Q183.98-6.85 185.08-8.35 186.18-9.85 187.98-10.95L187.98-10.95Q186.43-13 186.43-15.6L186.43-15.6Q186.43-18.3 187.91-20.25 189.38-22.2 191.71-23.2 194.03-24.2 196.48-24.2L196.48-24.2Q199.53-24.2 202.08-22.85L202.08-22.85Q203.03-25.45 204.93-26.9 206.83-28.35 209.58-28.45L209.58-28.45 209.58-26Q207.33-25.9 205.93-24.98 204.53-24.05 203.48-21.95L203.48-21.95Q204.93-20.85 205.76-19.28 206.58-17.7 206.58-15.75L206.58-15.75Q206.58-13.1 205.18-11.15 203.78-9.2 201.48-8.18 199.18-7.15 196.48-7.15L196.48-7.15Q194.38-7.15 192.46-7.8 190.53-8.45 189.08-9.7L189.08-9.7Q186.53-7.9 186.53-5.65L186.53-5.65Q186.53-4.1 187.73-3.1 188.93-2.1 191.33-2.1L191.33-2.1Q192.43-2.1 193.78-2.33 195.13-2.55 195.93-2.73 196.73-2.9 197.08-2.95L197.08-2.95Q200.98-3.9 203.38-3.9L203.38-3.9ZM196.48-22Q194.63-22 192.93-21.25 191.23-20.5 190.18-19.05 189.13-17.6 189.13-15.6L189.13-15.6Q189.13-12.65 191.33-11 193.53-9.35 196.48-9.35L196.48-9.35Q199.73-9.35 201.81-11.05 203.88-12.75 203.88-15.75L203.88-15.75Q203.88-18.7 201.66-20.35 199.43-22 196.48-22L196.48-22ZM195.33 8.7Q198.43 8.7 201.13 7.85 203.83 7 205.51 5.4 207.18 3.8 207.18 1.7L207.18 1.7Q207.18 0.05 206.01-0.78 204.83-1.6 202.78-1.6L202.78-1.6Q201.53-1.6 200.36-1.38 199.18-1.15 197.28-0.7L197.28-0.7Q195.03-0.2 193.78 0.03 192.53 0.25 191.03 0.25L191.03 0.25Q189.13 0.25 187.63-0.3L187.63-0.3Q185.88 1.3 185.88 3.4L185.88 3.4Q185.88 5.8 188.51 7.25 191.13 8.7 195.33 8.7L195.33 8.7ZM242.08-2.35L242.88-0.2Q241.28 0.6 239.83 0.6L239.83 0.6Q237.78 0.6 236.63-0.83 235.48-2.25 235.48-4.9L235.48-4.9 235.48-5.4Q232.88-2.5 230.28-0.93 227.68 0.65 224.78 0.65L224.78 0.65Q221.23 0.65 219.25-1.65 217.28-3.95 217.28-8.4L217.28-8.4 217.28-21.2 212.08-21.2 212.08-23.55 220.03-23.55 220.03-8.7Q220.03-5.35 221.35-3.63 222.68-1.9 225.58-1.9L225.58-1.9Q227.98-1.9 230.53-3.43 233.08-4.95 235.48-7.65L235.48-7.65 235.48-21.2 230.78-21.2 230.78-23.55 238.23-23.55 238.23-5Q238.23-3.35 238.78-2.58 239.33-1.8 240.23-1.8L240.23-1.8Q241.38-1.8 242.08-2.35L242.08-2.35ZM266.98-24.2L268.48-24.2 268.48-14.9 265.93-14.9 265.93-21.55Q263.03-21.5 260.33-19.8 257.63-18.1 254.68-14.85L254.68-14.85 254.68-2.35 260.53-2.35 260.53 0 246.13 0 246.13-2.35 251.93-2.35 251.93-21.2 246.13-21.2 246.13-23.55 254.68-23.55 254.68-17.2Q257.63-20.55 260.65-22.38 263.68-24.2 266.98-24.2L266.98-24.2ZM302.07-2.35L302.87-0.2Q301.27 0.6 299.82 0.6L299.82 0.6Q297.77 0.6 296.62-0.83 295.47-2.25 295.47-4.9L295.47-4.9 295.47-5.4Q292.87-2.5 290.27-0.93 287.67 0.65 284.77 0.65L284.77 0.65Q281.22 0.65 279.25-1.65 277.27-3.95 277.27-8.4L277.27-8.4 277.27-21.2 272.07-21.2 272.07-23.55 280.02-23.55 280.02-8.7Q280.02-5.35 281.35-3.63 282.67-1.9 285.57-1.9L285.57-1.9Q287.97-1.9 290.52-3.43 293.07-4.95 295.47-7.65L295.47-7.65 295.47-21.2 290.77-21.2 290.77-23.55 298.22-23.55 298.22-5Q298.22-3.35 298.77-2.58 299.32-1.8 300.22-1.8L300.22-1.8Q301.37-1.8 302.07-2.35L302.07-2.35Z" opacity="1" transform="matrix(1,0,0,1,0,0)" fill="#755bb4" class="slogan-text-1" data-fill-palette-color="secondary" id="text-1"></path></svg></g></svg></g></svg></g></svg></g><g></g></svg></g></svg></g></svg></g></svg></g><defs></defs></svg><rect width="320" height="360" fill="none" stroke="none" visibility="hidden"></rect></g></svg></g></svg>